<mxfile host="app.diagrams.net" modified="2023-03-12T12:41:57.976Z" agent="5.0 (Windows NT 10.0; Win64; x64) AppleWebKit/537.36 (KHTML, like Gecko) Chrome/111.0.0.0 Safari/537.36" etag="pcoz033PL0hQ4ReKsREq" version="21.0.6" type="github">
  <diagram name="第 1 页" id="mnxtHopMz36ZT85zfHQy">
    <mxGraphModel dx="440" dy="259" grid="1" gridSize="10" guides="1" tooltips="1" connect="1" arrows="1" fold="1" page="1" pageScale="1" pageWidth="827" pageHeight="1169" math="0" shadow="0">
      <root>
        <mxCell id="0" />
        <mxCell id="1" parent="0" />
        <mxCell id="syODpIOA5b3TOCbW3V0f-3" style="edgeStyle=orthogonalEdgeStyle;rounded=0;orthogonalLoop=1;jettySize=auto;html=1;" edge="1" parent="1" source="syODpIOA5b3TOCbW3V0f-2">
          <mxGeometry relative="1" as="geometry">
            <mxPoint x="357" y="450" as="targetPoint" />
          </mxGeometry>
        </mxCell>
        <mxCell id="syODpIOA5b3TOCbW3V0f-4" style="edgeStyle=orthogonalEdgeStyle;rounded=0;orthogonalLoop=1;jettySize=auto;html=1;" edge="1" parent="1" source="syODpIOA5b3TOCbW3V0f-2">
          <mxGeometry relative="1" as="geometry">
            <mxPoint x="310" y="390" as="targetPoint" />
            <Array as="points">
              <mxPoint x="300" y="390" />
              <mxPoint x="300" y="390" />
            </Array>
          </mxGeometry>
        </mxCell>
        <mxCell id="syODpIOA5b3TOCbW3V0f-2" value="" style="html=1;shape=mxgraph.basic.isocube;isoAngle=15;fillColor=#fff2cc;strokeColor=#d6b656;" vertex="1" parent="1">
          <mxGeometry x="340" y="370" width="60" height="40" as="geometry" />
        </mxCell>
      </root>
    </mxGraphModel>
  </diagram>
</mxfile>
